<?xml version="1.0" encoding="UTF-8"?>
<svg width="24px" height="24px" viewBox="0 0 24 24" version="1.1" xmlns="http://www.w3.org/2000/svg" xmlns:xlink="http://www.w3.org/1999/xlink">
    <title>socialLinkedIn</title>
    <defs>
        <polygon id="path-1" points="0 0 20 0 20 20 0 20"></polygon>
    </defs>
    <g id="Page-1" stroke="none" stroke-width="1" fill="none" fill-rule="evenodd">
        <g id="Artboard" transform="translate(-144.000000, -400.000000)">
            <g id="Editable" transform="translate(145.000000, 401.000000)">
                <g id="Group-3" transform="translate(2.000000, 2.000000)">
                    <mask id="mask-2" fill="white">
                        <use xlink:href="#path-1"></use>
                    </mask>
                    <g id="Clip-2"></g>
                    <path d="M4.00944214,2.48538197 C3.1631475,2.48426186 2.46624019,3.17186606 2.46230088,4.01143008 C2.45853259,4.86515272 3.15039493,5.56733609 3.99696984,5.56930223 C4.84536655,5.57112107 5.54591745,4.87202176 5.54521729,4.02432704 C5.54451607,3.18209952 4.85027139,2.48650481 4.00944214,2.48538197 L4.00944214,2.48538197 Z" id="Path" fill="#000000" mask="url(#mask-2)"></path>
                    <polygon id="Path" fill="#000000" mask="url(#mask-2)" points="2.68387483 15.3086058 5.31847314 15.3086058 5.31847314 6.76212724 2.68387483 6.76212724"></polygon>
                    <path d="M15.3142512,15.3151945 L15.3142512,15.1865053 C15.3142512,13.5746657 15.3190159,11.9628261 15.3118689,10.3511268 C15.3090661,9.7294092 15.2532911,9.11119625 15.0782585,8.5100858 C14.8379215,7.68482058 14.3662163,7.06128062 13.5360375,6.75609931 C13.1223495,6.6039993 12.6917048,6.55717773 12.252792,6.53881358 C11.1580323,6.49311349 10.296883,6.90609656 9.67312782,7.80944446 C9.64804308,7.8457522 9.61875419,7.87897589 9.59156738,7.91360142 C9.5795155,7.90855479 9.56732347,7.90350815 9.55527159,7.89846151 L9.55527159,6.76100576 L7.02900011,6.76100576 L7.02900011,15.308746 L9.66878353,15.308746 L9.66878353,15.1014134 C9.66878353,13.7639146 9.6668216,12.4262756 9.67060533,11.0887768 C9.67130602,10.8375664 9.6851797,10.5853748 9.71096513,10.3355663 C9.80261552,9.44609665 10.2460128,8.97619873 11.0740895,8.87835006 C11.8700745,8.78414618 12.4042814,9.15605524 12.564179,9.93758295 C12.618833,10.2043538 12.6509246,10.4803767 12.6527464,10.7524745 C12.6629765,12.2074478 12.660454,13.6625613 12.6622758,15.1175346 C12.6622758,15.1822997 12.6622758,15.2469247 12.6622758,15.3151945 L15.3142512,15.3151945 Z" id="Path" fill="#000000" mask="url(#mask-2)"></path>
                </g>
                <path d="M5.1277704,1 L16.8722296,1 C18.3720699,1 18.9300026,1.12081769 19.4820925,1.41607861 C19.9570983,1.67011445 20.3298856,2.04290172 20.5839214,2.51790745 C20.8791823,3.06999737 21,3.62793014 21,5.1277704 L21,5.1277704 L21,16.8722296 C21,18.3720699 20.8791823,18.9300026 20.5839214,19.4820925 C20.3298856,19.9570983 19.9570983,20.3298856 19.4820925,20.5839214 C18.9300026,20.8791823 18.3720699,21 16.8722296,21 L16.8722296,21 L5.1277704,21 C3.62793014,21 3.06999737,20.8791823 2.51790745,20.5839214 C2.04290172,20.3298856 1.67011445,19.9570983 1.41607861,19.4820925 C1.12081769,18.9300026 1,18.3720699 1,16.8722296 L1,16.8722296 L1,5.1277704 C1,3.62793014 1.12081769,3.06999737 1.41607861,2.51790745 C1.67011445,2.04290172 2.04290172,1.67011445 2.51790745,1.41607861 C3.06999737,1.12081769 3.62793014,1 5.1277704,1 L5.1277704,1 Z" id="Rectangle" stroke="#000000" stroke-width="2"></path>
            </g>
        </g>
    </g>
</svg>